<svg width="18" height="12" viewBox="0 0 18 12" fill="none" xmlns="http://www.w3.org/2000/svg">
<path d="M9.2909 11.4284C7.02691 11.4284 4.76248 11.4284 2.49759 11.4284C1.8983 11.4284 1.40461 11.2186 1.03535 10.7417C0.800162 10.438 0.675811 10.0631 0.682905 9.679C0.682905 8.63109 0.682905 7.58317 0.682905 6.53525C0.682905 4.98288 0.682905 3.43051 0.682905 1.87881C0.67969 1.48616 0.811618 1.10435 1.05655 0.797441C1.30149 0.490536 1.64453 0.277211 2.02811 0.193259C2.17077 0.163465 2.31621 0.149033 2.46194 0.150211C7.01189 0.147521 11.5621 0.147521 16.1125 0.150211C17.0447 0.150211 17.7395 0.738741 17.8841 1.63734C17.8979 1.74302 17.9033 1.84962 17.9002 1.95616C17.9002 4.51205 17.9002 7.06795 17.9002 9.62385C17.9002 10.6899 17.1644 11.4278 16.0936 11.4291C13.8278 11.4305 11.5603 11.4302 9.2909 11.4284ZM2.89308 1.29633C2.94286 1.35283 2.97043 1.38713 3.0007 1.41807C5.01851 3.43589 7.03633 5.4537 9.05414 7.47151C9.24449 7.66186 9.35412 7.65917 9.55052 7.46277C11.5643 5.44989 13.5776 3.43656 15.5905 1.42278C15.6228 1.38982 15.6504 1.35216 15.6954 1.29835L2.89308 1.29633ZM15.3571 10.2823L11.8374 6.76393C11.8111 6.79555 11.7742 6.84599 11.7311 6.88971C11.2684 7.35381 10.8063 7.81858 10.3402 8.28066C9.70926 8.90618 8.8833 8.90685 8.25509 8.28066C7.78427 7.81522 7.3195 7.34574 6.85204 6.87828C6.80966 6.83657 6.76527 6.79689 6.75854 6.79016L3.26638 10.2823H15.3571ZM5.84649 5.94739L1.82969 1.93194C1.82693 1.94408 1.82558 1.95649 1.82566 1.96894C1.82566 4.54501 1.82566 7.12131 1.82566 9.69784C1.83187 9.7748 1.8447 9.85108 1.864 9.92585L5.84649 5.94739ZM16.7386 1.91176L12.742 5.90905L16.7386 9.90567V1.91176Z" fill="white"/>
</svg>
