<svg width="190" height="614" viewBox="0 0 190 614" fill="none" xmlns="http://www.w3.org/2000/svg">
<path d="M108.61 204.469C112.083 193.806 112.873 186.063 111.929 180.553C111.001 175.135 108.401 171.852 104.864 169.931C101.234 167.96 96.4421 167.33 91.0567 167.665C85.6957 167.999 79.9156 169.277 74.4465 170.951C53.4652 177.373 42.3625 203.817 50.5458 230.554C58.7291 257.291 82.7308 272.991 103.712 266.569C109.088 264.924 110.522 263.119 110.855 261.232C111.048 260.136 110.921 258.775 110.499 256.987C110.133 255.434 109.583 253.703 108.941 251.683C108.844 251.378 108.745 251.066 108.644 250.747C105.571 241.034 101.426 226.528 108.61 204.469Z" stroke="#BADDFF" stroke-width="3.40953"/>
<path d="M218.275 573.95C207.85 569.815 200.172 568.541 194.614 569.137C189.148 569.723 185.709 572.112 183.57 575.522C181.375 579.021 180.446 583.764 180.442 589.16C180.439 594.531 181.352 600.38 182.68 605.943C187.772 627.286 213.468 640.026 240.666 633.536C267.864 627.047 285.038 604.077 279.946 582.734C278.641 577.266 276.929 575.721 275.066 575.271C273.985 575.009 272.619 575.051 270.807 575.359C269.235 575.627 267.473 576.068 265.417 576.581C265.106 576.659 264.788 576.739 264.464 576.819C254.577 579.277 239.84 582.504 218.275 573.95Z" stroke="#BADDFF" stroke-width="3.40953"/>
<path d="M162.303 26.0183C152.22 30.9275 146.101 35.7382 142.793 40.2441C139.54 44.6754 138.985 48.8263 140.061 52.7053C141.164 56.685 144.04 60.5699 148.021 64.2112C151.985 67.8361 156.92 71.1057 161.923 73.8772C181.117 84.5093 207.853 74.1268 221.401 49.6674C234.95 25.2079 229.571 -2.96359 210.377 -13.5958C205.46 -16.3199 203.165 -16.0978 201.576 -15.0259C200.654 -14.4036 199.763 -13.3671 198.769 -11.8213C197.907 -10.4793 197.044 -8.88137 196.037 -7.01684C195.884 -6.73495 195.729 -6.44696 195.57 -6.15284C190.717 2.80523 183.162 15.8632 162.303 26.0183Z" stroke="#BADDFF" stroke-width="3.40953"/>
<path d="M82.8504 391.726C76.5104 403.7 70.4308 410.932 64.7991 414.78C59.244 418.575 54.1086 419.098 49.3689 417.609C44.5295 416.089 39.9136 412.41 35.6679 407.439C31.438 402.487 27.6852 396.381 24.5426 390.224C12.3975 366.431 26.1621 334.453 56.298 319.07C86.4339 303.687 120.407 311.298 132.552 335.091C135.65 341.161 135.364 344.083 133.887 346.12C133.058 347.264 131.724 348.325 129.806 349.467C128.142 350.459 126.167 351.441 123.881 352.577C123.535 352.749 123.182 352.925 122.822 353.104C111.859 358.571 95.8902 367.099 82.8504 391.726Z" stroke="#BADDFF" stroke-width="3.40953"/>
<path d="M111.164 495.508C114.52 501.927 115.815 506.704 115.805 510.199C115.796 513.601 114.559 515.808 112.653 517.301C110.665 518.858 107.789 519.759 104.355 520.12C100.946 520.478 97.1535 520.288 93.4955 519.809C79.792 518.017 69.9268 502.675 72.257 484.863C74.5872 467.051 88.067 454.763 101.771 456.556C105.332 457.021 106.139 457.969 106.439 458.813C106.641 459.381 106.712 460.17 106.637 461.334C106.571 462.344 106.409 463.487 106.216 464.854C106.187 465.06 106.157 465.271 106.126 465.488C105.198 472.101 104.095 481.99 111.164 495.508Z" stroke="#BADDFF" stroke-width="3.40953"/>
<path d="M173.129 284.995C179.231 281.093 183.877 279.387 187.36 279.092C190.75 278.805 193.056 279.846 194.709 281.614C196.433 283.459 197.581 286.246 198.24 289.635C198.894 293.001 199.034 296.795 198.876 300.481C198.283 314.288 183.858 325.452 165.91 324.681C147.963 323.91 134.549 311.551 135.142 297.743C135.296 294.155 136.17 293.268 136.984 292.896C137.532 292.645 138.312 292.506 139.478 292.48C140.49 292.457 141.643 292.519 143.022 292.593C143.229 292.604 143.443 292.615 143.661 292.627C150.33 292.976 160.277 293.214 173.129 284.995Z" stroke="#BADDFF" stroke-width="3.40953"/>
<path d="M166.71 128.061C172.812 124.158 177.458 122.453 180.94 122.158C184.33 121.871 186.637 122.911 188.289 124.68C190.014 126.525 191.162 129.312 191.82 132.701C192.474 136.066 192.615 139.861 192.456 143.546C191.863 157.354 177.438 168.517 159.491 167.746C141.544 166.975 128.129 154.616 128.722 140.809C128.876 137.221 129.75 136.333 130.565 135.961C131.113 135.711 131.893 135.571 133.059 135.545C134.071 135.522 135.223 135.584 136.602 135.658C136.81 135.669 137.023 135.681 137.242 135.692C143.91 136.041 153.857 136.279 166.71 128.061Z" stroke="#BADDFF" stroke-width="3.40953"/>
<path d="M150.52 222.031C149.534 217.612 149.547 214.601 150.087 212.61C150.603 210.709 151.595 209.725 152.813 209.207C154.127 208.648 155.895 208.555 157.993 208.888C160.067 209.217 162.3 209.936 164.426 210.816C172.065 213.977 175.575 224.51 171.32 234.794C167.066 245.077 157.139 250.052 149.5 246.891C147.468 246.05 147.423 245.479 147.407 245.281L147.407 245.279C147.387 245.027 147.441 244.63 147.668 243.961C147.865 243.379 148.14 242.733 148.483 241.928C148.535 241.807 148.588 241.682 148.643 241.554C150.315 237.616 152.66 231.62 150.52 222.031Z" stroke="#BADDFF" stroke-width="3.40953"/>
<path d="M118.246 554.964C116.057 551.001 115.222 548.108 115.18 546.046C115.14 544.076 115.815 542.853 116.838 542.013C117.942 541.107 119.612 540.52 121.719 540.249C123.802 539.982 126.146 540.043 128.434 540.289C136.654 541.173 142.986 550.293 141.797 561.359C140.608 572.424 132.482 579.99 124.262 579.106C122.076 578.871 121.871 578.336 121.8 578.15L121.8 578.149C121.71 577.913 121.65 577.516 121.679 576.81C121.705 576.197 121.787 575.5 121.89 574.63C121.906 574.499 121.921 574.365 121.938 574.226C122.435 569.977 122.997 563.563 118.246 554.964Z" stroke="#BADDFF" stroke-width="3.40953"/>
<path d="M109.83 113.287C105.914 115.56 103.039 116.456 100.978 116.542C99.0093 116.623 97.7724 115.974 96.9109 114.969C95.9815 113.885 95.3599 112.227 95.0446 110.127C94.733 108.05 94.745 105.704 94.9425 103.412C95.6521 95.1749 104.637 88.6514 115.724 89.6066C126.812 90.5618 134.549 98.5258 133.839 106.763C133.65 108.953 133.119 109.169 132.935 109.244L132.934 109.244C132.7 109.339 132.305 109.408 131.598 109.393C130.984 109.38 130.286 109.313 129.414 109.228C129.283 109.216 129.148 109.203 129.009 109.189C124.75 108.782 118.326 108.355 109.83 113.287Z" stroke="#BADDFF" stroke-width="3.40953"/>
<path d="M171.041 380.229C171.611 382.477 171.648 384.019 171.401 385.046C171.164 386.027 170.671 386.545 170.055 386.829C169.39 387.134 168.486 387.207 167.407 387.067C166.341 386.929 165.187 386.594 164.085 386.174C160.128 384.667 158.177 379.325 160.205 373.998C162.234 368.671 167.244 365.979 171.201 367.486C172.254 367.886 172.285 368.178 172.296 368.279L172.296 368.28C172.31 368.409 172.288 368.613 172.182 368.959C172.089 369.26 171.958 369.594 171.794 370.012C171.769 370.075 171.744 370.139 171.718 370.206C170.919 372.246 169.806 375.351 171.041 380.229Z" stroke="#BADDFF" stroke-width="1.74643"/>
<path d="M145.092 470.614C142.774 470.542 141.281 470.153 140.362 469.633C139.484 469.135 139.121 468.518 139.019 467.848C138.908 467.125 139.087 466.236 139.518 465.237C139.945 464.25 140.585 463.233 141.292 462.289C143.83 458.9 149.503 458.495 154.066 461.913C158.629 465.33 159.837 470.887 157.298 474.277C156.623 475.178 156.334 475.128 156.234 475.111L156.233 475.111C156.105 475.088 155.915 475.011 155.612 474.814C155.348 474.642 155.063 474.423 154.706 474.151C154.653 474.11 154.598 474.068 154.541 474.024C152.799 472.694 150.122 470.77 145.092 470.614Z" stroke="#BADDFF" stroke-width="1.74643"/>
<path d="M156.111 613.476C156.68 615.724 156.717 617.266 156.47 618.293C156.234 619.274 155.74 619.792 155.124 620.075C154.459 620.381 153.556 620.454 152.477 620.314C151.41 620.176 150.256 619.841 149.155 619.421C145.197 617.914 143.246 612.572 145.275 607.245C147.303 601.917 152.313 599.226 156.271 600.733C157.323 601.133 157.355 601.425 157.366 601.526L157.366 601.527C157.38 601.656 157.358 601.86 157.251 602.206C157.159 602.506 157.027 602.841 156.863 603.259C156.839 603.322 156.813 603.386 156.787 603.453C155.988 605.493 154.875 608.598 156.111 613.476Z" stroke="#BADDFF" stroke-width="1.74643"/>
<path d="M79.9396 592.108C79.5716 589.819 79.671 588.279 80.0084 587.278C80.3307 586.322 80.8682 585.849 81.507 585.622C82.1962 585.377 83.1028 585.384 84.1652 585.619C85.2155 585.851 86.3349 586.287 87.3949 586.802C91.2035 588.654 92.6736 594.148 90.1814 599.275C87.6891 604.401 82.4605 606.639 78.6518 604.787C77.639 604.295 77.6334 604.001 77.6315 603.9L77.6315 603.899C77.629 603.769 77.6689 603.568 77.8055 603.233C77.9242 602.942 78.0848 602.62 78.2852 602.219C78.3153 602.158 78.3463 602.096 78.3782 602.032C79.3548 600.07 80.7382 597.077 79.9396 592.108Z" stroke="#BADDFF" stroke-width="1.74643"/>
<path d="M37.0952 296.142C33.1795 298.415 30.3042 299.311 28.2433 299.396C26.2749 299.478 25.038 298.829 24.1765 297.824C23.2471 296.739 22.6255 295.082 22.3102 292.981C21.9986 290.905 22.0106 288.559 22.2081 286.267C22.9177 278.03 31.9023 271.506 42.9901 272.461C54.0779 273.416 61.8144 281.381 61.1048 289.618C60.916 291.808 60.3848 292.024 60.2009 292.098L60.1998 292.099C59.9652 292.194 59.5702 292.262 58.8636 292.248C58.2501 292.235 57.5512 292.168 56.6794 292.083C56.5485 292.071 56.4136 292.057 56.2746 292.044C52.016 291.637 45.5919 291.21 37.0952 296.142Z" stroke="#BADDFF" stroke-width="3.40953"/>
<path d="M131.157 432.965C130.972 437.489 130.184 440.395 129.149 442.18C128.161 443.884 126.949 444.579 125.639 444.766C124.225 444.968 122.493 444.602 120.552 443.74C118.632 442.888 116.66 441.618 114.832 440.22C108.265 435.199 107.586 424.116 114.346 415.276C121.106 406.435 131.979 404.185 138.547 409.207C140.293 410.543 140.19 411.107 140.154 411.302L140.154 411.303C140.108 411.552 139.954 411.922 139.562 412.51C139.222 413.021 138.79 413.574 138.25 414.265C138.169 414.368 138.086 414.475 138 414.585C135.369 417.959 131.56 423.149 131.157 432.965Z" stroke="#BADDFF" stroke-width="3.40953"/>
<path d="M179.781 520.531C179.658 523.526 179.136 525.45 178.451 526.631C177.797 527.759 176.995 528.219 176.128 528.343C175.192 528.476 174.045 528.234 172.76 527.664C171.49 527.099 170.184 526.259 168.975 525.334C164.627 522.01 164.178 514.674 168.653 508.822C173.127 502.97 180.325 501.481 184.672 504.805C185.828 505.689 185.76 506.063 185.736 506.192L185.736 506.193C185.705 506.357 185.603 506.602 185.344 506.992C185.119 507.33 184.833 507.696 184.476 508.153C184.422 508.221 184.367 508.292 184.31 508.365C182.569 510.598 180.047 514.034 179.781 520.531Z" stroke="#BADDFF" stroke-width="2.25688"/>
<path d="M190.817 432.912C187.253 428.9 185.465 425.699 184.844 423.184C184.24 420.737 184.733 418.928 185.836 417.513C186.985 416.037 188.891 414.873 191.295 413.997C193.682 413.127 196.443 412.584 199.158 412.271C209.332 411.101 219.177 420.36 220.699 433.583C222.22 446.807 214.735 458.06 204.561 459.231C201.917 459.535 201.167 458.998 200.8 458.446C200.553 458.074 200.36 457.519 200.205 456.669C200.071 455.931 199.982 455.08 199.876 454.063C199.86 453.909 199.844 453.752 199.827 453.591C199.308 448.67 198.325 441.363 190.817 432.912Z" stroke="#BADDFF" stroke-width="2.52641"/>
<path d="M42.2174 543.125C38.6526 539.112 36.8645 535.911 36.244 533.396C35.6399 530.949 36.1333 529.14 37.2356 527.725C38.3854 526.249 40.2914 525.085 42.6951 524.209C45.082 523.339 47.8425 522.796 50.5581 522.483C60.7317 521.313 70.5774 530.572 72.0989 543.795C73.6204 557.019 66.1347 568.272 55.9612 569.443C53.3174 569.747 52.5666 569.211 52.1996 568.658C51.9528 568.286 51.76 567.731 51.6053 566.881C51.471 566.143 51.3823 565.292 51.2761 564.275C51.2601 564.121 51.2437 563.964 51.2267 563.803C50.7074 558.882 49.7254 551.575 42.2174 543.125Z" stroke="#BADDFF" stroke-width="2.52641"/>
</svg>
