<svg width="16" height="16" viewBox="0 0 16 16" fill="none" xmlns="http://www.w3.org/2000/svg">
<path d="M6.34509 6.44933C7.20945 7.74165 8.23861 8.82683 9.55698 9.66254C9.68726 9.52705 9.81753 9.39091 9.95106 9.25804C10.6337 8.57801 11.4245 8.41972 12.3422 8.70828C12.8739 8.87707 13.4185 9.0019 13.9707 9.08152C15.0076 9.22742 15.7945 9.9765 15.8544 11.0259C15.9007 11.8642 15.8792 12.7077 15.8459 13.5473C15.8258 14.0482 15.5789 14.4592 15.1835 14.7849C14.5888 15.2747 13.9283 15.4363 13.1643 15.306C11.2903 14.992 9.51009 14.4247 7.85561 13.4906C5.79533 12.3227 4.15128 10.7145 2.86026 8.73564C1.7677 7.0627 1.04732 5.17455 0.747875 3.19901C0.65994 2.63883 0.601317 2.08256 0.796728 1.52759C0.939285 1.12404 1.20261 0.774161 1.55094 0.525474C1.89926 0.276788 2.3157 0.141354 2.74367 0.137573C3.41132 0.137573 4.07898 0.137573 4.74598 0.137573C5.9445 0.142133 6.7815 0.919216 6.93783 2.11057C7.01171 2.6419 7.1347 3.16523 7.3052 3.67385C7.60613 4.59033 7.40226 5.36741 6.75936 6.05591C6.63038 6.1953 6.48578 6.31646 6.34509 6.44933ZM14.4813 12.2465C14.4813 11.915 14.4813 11.5841 14.4813 11.2532C14.4813 10.8624 14.2403 10.5471 13.8567 10.4989C13.1467 10.4103 12.4712 10.2051 11.8042 9.9563C11.4785 9.83515 11.1802 9.88335 10.9275 10.1517C10.6669 10.4338 10.3875 10.7015 10.1113 10.9698C9.99766 11.089 9.84644 11.1654 9.68308 11.1862C9.51972 11.2069 9.3542 11.1708 9.21436 11.0838C7.43304 10.088 5.9543 8.62889 4.93487 6.861C4.71731 6.48711 4.76617 6.10932 5.07427 5.79666C5.32504 5.54198 5.57712 5.28664 5.83441 5.03847C6.10929 4.77271 6.13925 4.47569 6.03373 4.11613C5.84418 3.46476 5.67613 2.81339 5.52762 2.15226C5.4462 1.79205 5.20193 1.53476 4.82675 1.53215C4.1376 1.52694 3.44845 1.51913 2.75995 1.53215C2.31377 1.54192 1.9972 1.87803 2.05647 2.32943C2.12611 2.9485 2.23841 3.56203 2.39258 4.16564C3.33511 7.59705 5.27814 10.2944 8.34348 12.1462C9.96554 13.1331 11.7844 13.7521 13.6717 13.9596C13.7739 13.9739 13.8779 13.9658 13.9766 13.9359C14.0754 13.906 14.1664 13.855 14.2435 13.7864C14.3206 13.7178 14.3818 13.6333 14.423 13.5387C14.4642 13.4441 14.4843 13.3417 14.482 13.2385C14.482 12.9077 14.482 12.5787 14.482 12.2459L14.4813 12.2465Z" fill="white"/>
</svg>
