<svg width="17" height="17" viewBox="0 0 17 17" fill="none" xmlns="http://www.w3.org/2000/svg">
<path d="M5.9619 11.4987C6.14869 12.1104 6.40303 12.6993 6.72023 13.2546C7.25456 14.2098 7.94945 15.0657 8.77439 15.7849C8.86734 15.8704 8.93216 15.9821 8.96029 16.1053C8.98841 16.2284 8.97852 16.3572 8.93191 16.4746C8.8853 16.592 8.80417 16.6925 8.69925 16.7628C8.59432 16.8331 8.47053 16.8699 8.34423 16.8684C6.32841 16.8438 4.53266 16.2013 2.99223 14.8993C1.3437 13.5061 0.335404 11.7272 0.0785391 9.58412C-0.330912 6.12833 0.998653 3.40862 3.8395 1.47561C7.99612 -1.34607 13.7974 0.333905 15.9628 4.91531C16.7962 6.67886 16.9764 8.52522 16.5447 10.4283C16.529 10.5102 16.497 10.5882 16.4505 10.6575C16.4041 10.7267 16.3441 10.786 16.2743 10.8316C16.2045 10.8773 16.1262 10.9084 16.0441 10.9231C15.962 10.9379 15.8777 10.936 15.7964 10.9175C15.7169 10.8984 15.6421 10.8636 15.5762 10.8151C15.5104 10.7666 15.4549 10.7055 15.4131 10.6352C15.3712 10.565 15.3438 10.4871 15.3325 10.4062C15.3211 10.3252 15.3261 10.2428 15.3471 10.1638C15.597 9.04279 15.6139 7.92331 15.3302 6.80537C15.3241 6.78084 15.3164 6.75707 15.3064 6.7218H12.3437C12.3674 6.93802 12.3973 7.15042 12.4127 7.36358C12.4395 7.75156 12.2187 8.03066 11.8683 8.06516C11.5179 8.09967 11.2472 7.86274 11.1912 7.48166C11.1628 7.28614 11.1276 7.09061 11.1145 6.89355C11.1061 6.7402 11.0448 6.70723 10.9014 6.708C9.69373 6.71336 8.48608 6.708 7.27843 6.708C6.79921 6.708 6.31998 6.71336 5.84076 6.708C5.69507 6.708 5.6368 6.73713 5.61073 6.89662C5.4327 7.96283 5.43426 9.05132 5.61533 10.117C5.63986 10.2612 5.70734 10.2704 5.82082 10.2704C6.65097 10.2673 7.48137 10.2673 8.31203 10.2704C8.44728 10.269 8.57918 10.3125 8.68721 10.3939C8.79524 10.4753 8.87333 10.5901 8.90933 10.7205C8.94608 10.8476 8.93907 10.9833 8.88943 11.1059C8.83979 11.2286 8.75041 11.331 8.6356 11.3967C8.51081 11.4591 8.37333 11.4919 8.23382 11.4926C7.48852 11.5033 6.74093 11.4987 5.9619 11.4987ZM8.3841 1.55536C7.27313 2.64665 6.44149 3.98958 5.9596 5.47044H10.781C10.3015 3.99485 9.48027 2.65339 8.3841 1.55536ZM4.39694 6.7218H1.45871C1.152 7.88166 1.152 9.10131 1.45871 10.2612H4.39234C4.20294 9.08886 4.20449 7.89362 4.39694 6.7218ZM14.8502 5.48425C14.1601 3.79737 12.3023 2.02002 10.0564 1.55459C10.0604 1.57286 10.0672 1.59043 10.0763 1.60673C10.9673 2.74307 11.6513 3.98369 12.0377 5.38533C12.0502 5.41062 12.0687 5.43249 12.0915 5.44905C12.1144 5.46561 12.1409 5.47638 12.1688 5.48041C13.0521 5.48578 13.9393 5.48425 14.8464 5.48425H14.8502ZM1.89193 11.4987C2.92092 13.5621 4.51119 14.8594 6.73633 15.4552C6.69339 15.3885 6.67883 15.3609 6.65966 15.3364C5.77028 14.238 5.10895 12.9732 4.71438 11.616C4.68371 11.5072 4.62544 11.4972 4.53496 11.498C4.21599 11.498 3.89701 11.498 3.57804 11.498L1.89193 11.4987ZM1.9249 5.48425C2.81741 5.48425 3.68845 5.48425 4.56716 5.48425C4.68524 5.48425 4.69828 5.416 4.72051 5.33089C5.0696 4.13986 5.62668 3.01999 6.36599 2.02308C6.4741 1.8751 6.58605 1.73018 6.70336 1.57376C5.15374 1.61823 2.4716 3.8127 1.92184 5.48425H1.9249Z" fill="white"/>
</svg>
